<svg xmlns="http://www.w3.org/2000/svg" width="30" height="30" viewBox="0 0 30 30">
  <g id="Google__G__Logo" transform="translate(26.754 -39.239)">
    <path id="Trazado_98" data-name="Trazado 98" d="M-.08,52.076a17.019,17.019,0,0,0-.243-2.837H-14.754v5.638h8.263a6.959,6.959,0,0,1-3.065,4.475V63.1h4.93A14.51,14.51,0,0,0-.08,52.076Z" transform="translate(3.326 2.5)" fill="#4285f4"/>
    <path id="Trazado_99" data-name="Trazado 99" d="M-11.786,65.667A14.784,14.784,0,0,0-1.658,62.029l-4.93-3.75a9.392,9.392,0,0,1-5.2,1.45,9.133,9.133,0,0,1-8.6-6.2h-5.083v3.863A15.339,15.339,0,0,0-11.786,65.667Z" transform="translate(0.358 3.573)" fill="#34a853"/>
    <path id="Trazado_100" data-name="Trazado 100" d="M-20.023,55.446a8.537,8.537,0,0,1-.485-2.862,8.869,8.869,0,0,1,.485-2.862V45.859h-5.083a14.571,14.571,0,0,0-1.648,6.725,14.571,14.571,0,0,0,1.648,6.725Z" transform="translate(0 1.655)" fill="#fbbc05"/>
    <path id="Trazado_101" data-name="Trazado 101" d="M-11.786,45.176a8.414,8.414,0,0,1,5.875,2.25l4.368-4.275a14.826,14.826,0,0,0-10.243-3.913,15.339,15.339,0,0,0-13.678,8.275l5.083,3.862A9.133,9.133,0,0,1-11.786,45.176Z" transform="translate(0.358)" fill="#ea4335"/>
  </g>
</svg>
