<svg xmlns="http://www.w3.org/2000/svg" width="304" height="236" viewBox="0 0 304 236"><path d="M889.851,436.562l-6.648-6.669a118.954,118.954,0,0,1,2.558-13.13l3.789,1.923-3.4-3.415c1.411-5.334,2.682-8.777,2.682-8.777s13.4,13.681,20.322,29.724l-4.29,11.309,5.87-7.27a48.117,48.117,0,0,1,1.646,5.8c4.237,19.851,1.205,37.331-6.771,39.042s-17.876-12.993-22.113-32.844A63.383,63.383,0,0,1,882.837,433Z" transform="translate(-853.718 -302.617)" fill="#2a2a2a"/><path d="M909.492,489.344l-9.129-2.264a118.913,118.913,0,0,1-4.579-12.565l4.234-.317-4.674-1.159c-1.542-5.3-2.229-8.9-2.229-8.9s18.521,4.768,32.719,14.912l2.157,11.905,1.277-9.266a47.936,47.936,0,0,1,4.4,4.116c13.861,14.8,20.277,31.332,14.331,36.931s-22-1.858-35.861-16.655a63.234,63.234,0,0,1-10.488-16.145Z" transform="translate(-893.116 -341.546)" fill="#2a2a2a"/><path d="M685.686,192.647,683.443,175a223.521,223.521,0,0,1,18.934-16.635l3.44,7.256-1.148-9.037c8.247-6.328,14.109-10,14.109-10s4.244,35.928-3.893,67.887L695.46,226.387l17.132-4.056a90.736,90.736,0,0,1-4.226,10.568c-16.533,34.531-41.183,57.11-55.057,50.432s-11.719-40.086,4.813-74.617c5.125-10.705,12.9-20.742,21.195-29.5Z" transform="translate(-582.181 -127.081)" fill="#2a2a2a"/><path d="M779.354,164l-11.018-13.946A224.385,224.385,0,0,1,775.969,126l6.686,4.428-5.641-7.141c3.8-9.692,6.925-15.869,6.925-15.869s22.154,28.556,31.664,60.132l-10.487,20.266,12.575-12.351a90.832,90.832,0,0,1,1.83,11.237c3.648,38.129-5.813,70.234-21.133,71.708s-30.7-28.241-34.345-66.371c-1.131-11.82.353-24.444,2.937-36.238Z" transform="translate(-721.284 -100.627)" fill="#2a2a2a"/><path d="M187.2,211.667l1.115-18.519a232.747,232.747,0,0,1,22.616-13.363l2.122,8.1.571-9.482c9.673-4.88,16.387-7.5,16.387-7.5s-2.6,37.635-17.114,68.8l-22.205,8.429,18.337-.825a94.517,94.517,0,0,1-6.373,10.006c-23.615,32.166-53.236,50.508-66.16,40.968s-4.257-43.349,19.358-75.514c7.321-9.972,17.23-18.744,27.419-26.1Z" transform="translate(73.991 -143.508)" fill="#2a2a2a"/><path d="M312.387,143.58l-8.593-16.431a233.718,233.718,0,0,1,12.471-23.161l5.994,5.836-4.4-8.413c5.765-9.192,10.163-14.912,10.163-14.912s17.177,33.564,20.815,67.764l-14.663,18.725,15.272-10.21a94.727,94.727,0,0,1-.3,11.869c-3.634,39.775-19.535,70.829-35.516,69.361s-25.991-34.9-22.357-74.677c1.127-12.331,5.087-24.976,10.015-36.557Z" transform="translate(-97.324 -86.5)" fill="#2a2a2a"/><path d="M11.331.135c6.258,0,11.331,1.319,11.331,3.111S17.589,6.492,11.331,6.492,0,5.039,0,3.246,5.073.135,11.331.135Z" transform="translate(155.661 216.847)" fill="#2a2a2a"/><path d="M11.331.063c6.258,0,11.331,1.39,11.331,3.183S17.589,6.492,11.331,6.492,0,5.039,0,3.246,5.073.063,11.331.063Z" transform="translate(32.314 229.508)" fill="#2a2a2a"/><path d="M11.331,0c6.258,0,11.331,1.677,11.331,3.746S17.589,7.367,11.331,7.367,0,5.815,0,3.746,5.073,0,11.331,0Z" transform="translate(8.68 202.889)" fill="#2a2a2a"/><path d="M8.579,0c4.738,0,8.579,1.1,8.579,2.458s-3.841,2.8-8.579,2.8S0,3.815,0,2.458,3.841,0,8.579,0Z" transform="translate(57.89 195.051)" fill="#2a2a2a"/><path d="M5.666,0c3.129,0,5.666.789,5.666,1.762S8.795,3.755,5.666,3.755,0,2.735,0,1.762,2.537,0,5.666,0Z" transform="translate(246.634 194.124)" fill="#2a2a2a"/><path d="M5.666,0c3.129,0,5.666.789,5.666,1.762S8.795,3.684,5.666,3.684,0,2.735,0,1.762,2.537,0,5.666,0Z" transform="translate(268.973 213.926)" fill="#2a2a2a"/><path d="M5.666,0c3.129,0,5.666.789,5.666,1.762s-2.537,1.9-5.666,1.9S0,2.735,0,1.762,2.537,0,5.666,0Z" transform="translate(268.973 182.762)" fill="#2a2a2a"/><path d="M234.75,430.149l54.895-1.948,28.949,2.769,49.459,4.73,18.612,1.779,43.1,14.413a.966.966,0,0,0,1.208-1.26l0,0L423.5,430.8l.787-.581,20.571-15.157.11-.081,26.674-4.077a2.244,2.244,0,0,0,1.5-3.5l-40.624-58.451-21.348-30.709-2.315-3.334-88.8-1.23-86.7,113.731a1.7,1.7,0,0,0,1.408,2.733Z" transform="translate(-202.719 -239.935)" fill="#01e986"/><path d="M191.09,242.5l36.239,110.565L247.9,337.911,235.554,271.8l-21.286-30.783-.061.072Z" transform="translate(-5.763 -162.779)" opacity="0.2"/><path d="M363.428,422.5c4.112,9.912,5.568,18.191,10.445,16.7,6.677-2.047-.334-9.286-4.446-19.2s-7.017-17.515-10.445-16.7C352.592,404.826,359.316,412.585,363.428,422.5Z" transform="translate(-145.752 -300.418)" fill="#3f3d56"/><path d="M374.4,389.286a4.988,4.988,0,0,1,4.99-4.987c.112,0,.224.005.334.013l4.7-.582a4.959,4.959,0,0,1,1.681-.289c.158,0,.314.009.469.023l.181-.022,0,.044a5,5,0,0,1,1.053,9.641l.01.09-.462.052a4.975,4.975,0,0,1-1.271.162c-.048,0-.095,0-.142,0l-4.806.54a4.947,4.947,0,0,1-2.442.274l-.41.046,0-.12A4.993,4.993,0,0,1,374.4,389.286Z" transform="translate(-166.039 -287.048)" fill="#01e986"/><path d="M374.4,389.286a4.988,4.988,0,0,1,4.99-4.987c.112,0,.224.005.334.013l4.7-.582a4.959,4.959,0,0,1,1.681-.289c.158,0,.314.009.469.023l.181-.022,0,.044a5,5,0,0,1,1.053,9.641l.01.09-.462.052a4.975,4.975,0,0,1-1.271.162c-.048,0-.095,0-.142,0l-4.806.54a4.947,4.947,0,0,1-2.442.274l-.41.046,0-.12A4.993,4.993,0,0,1,374.4,389.286Z" transform="translate(-166.039 -287.048)" fill="#fff" opacity="0.2"/><path d="M275.438,425.953l.575-.3c-14.738-28.167-56.424-88.35-56.844-88.954l-.534.372C219.055,337.673,260.718,397.822,275.438,425.953Z" transform="translate(-0.547 -255.477)" fill="#3f3d56"/><path d="M398.839,469.027l.627-.171c-.3-1.119-30.492-112.154-40.974-130.884l-.567.319C368.367,356.951,398.535,467.908,398.839,469.027Z" transform="translate(-169.094 -256.338)" fill="#3f3d56"/><path d="M744.023,446.242C760.118,419.658,820.9,337.326,821.508,336.5l-.522-.388c-.612.829-61.409,83.185-77.518,109.795Z" transform="translate(-715.955 -255.081)" fill="#3f3d56"/><path d="M508.992,270.909l-122.578,1.317A38,38,0,0,1,424.379,234.5l46.78.075a38.165,38.165,0,0,1,37.719,34.93Z" transform="translate(-287.843 -186.456)" fill="#3f3d56"/><path d="M572.094,471.814h44.8A4.124,4.124,0,0,1,621.016,476l-.039,3.285-.4,35.17-.006.678-.013,1.12-.013,1.094-.075,6.593a4.13,4.13,0,0,1-4.034,4.087c-.11,0-.223,0-.337-.01l-10.638-.649-15.391-.941-5.432-.331-1.211-.075-8.466-.516h0l-3.114-.192a4.134,4.134,0,0,1-3.872-4.126V475.946A4.131,4.131,0,0,1,572.094,471.814Z" transform="translate(-458.647 -346.733)" opacity="0.2"/><path d="M549.941,443.782a1.1,1.1,0,0,1,.816.469l4.936.008v-1.313a4.131,4.131,0,0,1,4.121-4.132h44.8A4.123,4.123,0,0,1,608.736,443l-.016,1.349,3.184.005a.984.984,0,0,1,.668-.311c1.116,0,2.017,2.445,2.012,5.457s-.913,5.453-2.029,5.451a1.219,1.219,0,0,1-.935-.625l-60.879-.1a1.1,1.1,0,0,1-.817.466c-1.116,0-2.016-2.445-2.012-5.457S548.826,443.781,549.941,443.782Z" transform="translate(-445.72 -324.445)" fill="#01e986"/><path d="M549.941,443.782a1.1,1.1,0,0,1,.815.469l4.936.008v-1.313a4.131,4.131,0,0,1,4.121-4.132h44.8A4.124,4.124,0,0,1,608.736,443l-.016,1.349,3.184.005a.984.984,0,0,1,.669-.311c1.116,0,2.016,2.445,2.012,5.457s-.913,5.453-2.029,5.451a1.219,1.219,0,0,1-.935-.625l-60.879-.1a1.1,1.1,0,0,1-.817.466c-1.116,0-2.016-2.445-2.012-5.457S548.826,443.781,549.941,443.782Z" transform="translate(-445.72 -324.445)" fill="#fff" opacity="0.2"/><path d="M712.631,650.949h0a2.629,2.629,0,0,0,4.134-.708l2.436-4.689-.969-2.105L713.01,646.8a2.644,2.644,0,0,0-.379,4.152Z" transform="translate(-603.394 -462.649)" fill="#ffb8b8"/><path d="M746.358,746.77a2.183,2.183,0,0,1,2.2-1.954,2.209,2.209,0,0,1,2.157,1.677h0l2.157,10.5a4.258,4.258,0,0,1,.11.936,4.446,4.446,0,0,1-8.85,0,4.307,4.307,0,0,1,.153-1.123Z" transform="translate(-647.643 -531.112)" fill="#3f3d56"/><path d="M779.749,751.468a4.946,4.946,0,0,1,.705-.517l8.24-5.774a1.758,1.758,0,0,1,2.281.119,1.611,1.611,0,0,1,.237,2.044l-6.222,8.2a4.341,4.341,0,0,1-.474.557,3.535,3.535,0,0,1-4.785,0A3.235,3.235,0,0,1,779.749,751.468Z" transform="translate(-697.35 -531.113)" fill="#3f3d56"/><path d="M807.062,738.953h8.346a1.016,1.016,0,0,1,1.052.97,1.106,1.106,0,0,1-.82,1.089l-7.873,2.442a2.326,2.326,0,0,1-2.684-2.031C805.083,739.8,805.984,738.953,807.062,738.953Z" transform="translate(-730.855 -527.153)" fill="#3f3d56"/><path d="M676.23,739.9a1.037,1.037,0,0,1,1.12-.97H685.7a2.268,2.268,0,0,1,1.938,2.415,2.329,2.329,0,0,1-2.643,2.09L677,741A1,1,0,0,1,676.23,739.9Z" transform="translate(-560.311 -527.137)" fill="#3f3d56"/><path d="M701.205,745.191l8.243,5.749a3.831,3.831,0,0,1,.711.517,3.135,3.135,0,0,1,.16,4.422q-.077.083-.16.16a3.477,3.477,0,0,1-4.783,0,3.651,3.651,0,0,1-.474-.556l-6.227-8.153a1.57,1.57,0,0,1,.237-2.027,1.774,1.774,0,0,1,2.293-.112Z" transform="translate(-591.014 -531.118)" fill="#3f3d56"/><path d="M742.034,706.8a.889.889,0,0,1-.153-.477c0-1.007,1.978-1.706,4.425-1.706s4.424.7,4.424,1.706a.852.852,0,0,1-.11.4l-2.157,4.464h0a2.694,2.694,0,0,1-2.157.713c-1.148,0-2.1-.364-2.2-.83Z" transform="translate(-644.664 -503.963)" fill="#3f3d56"/><path d="M777.483,711.452a7.418,7.418,0,0,1,4.785,0,3.862,3.862,0,0,1,.474.237l6.222,3.485c.423.276.323.641-.237.869a3.714,3.714,0,0,1-2.281.05l-8.24-2.454a7.019,7.019,0,0,1-.705-.22C776.2,712.985,776.186,712,777.483,711.452Z" transform="translate(-694.372 -508.312)" fill="#3f3d56"/><path d="M802.833,724.468c0-.542,1.541-.977,2.684-.863l7.873,1.038c.47.066.82.22.82.463s-.513.412-1.052.412h-8.346C803.734,725.518,802.833,725.158,802.833,724.468Z" transform="translate(-727.878 -516.775)" fill="#3f3d56"/><path d="M674.743,724.644l7.992-1.038c1.147-.114,2.643.346,2.643.888s-.886,1.026-1.938,1.026h-8.346c-.581,0-1.12-.16-1.12-.412S674.223,724.711,674.743,724.644Z" transform="translate(-557.326 -516.776)" fill="#3f3d56"/><path d="M696.66,716.078c-.583-.231-.652-.58-.237-.862l6.227-3.465a3.263,3.263,0,0,1,.474-.236,7.261,7.261,0,0,1,4.783,0q.083.033.16.068c1.174.538,1.1,1.379-.16,1.879a5.458,5.458,0,0,1-.711.22l-8.243,2.443A3.757,3.757,0,0,1,696.66,716.078Z" transform="translate(-588.034 -508.348)" fill="#3f3d56"/><path d="M702.769,639.219c0,12.908,7.174,13.147,16.025,13.147s23.38-2.554,16.025-13.147c-7.758-11.173-21.068-32.469-16.025-33.6C718.794,605.622,702.769,626.311,702.769,639.219Z" transform="translate(-618.101 -437.104)" fill="#f9a825"/><path d="M734.267,705.916c0,5.109,2.84,5.2,6.343,5.2s9.255-1.011,6.343-5.2c-3.071-4.423-8.339-12.852-6.343-13.3C740.61,692.617,734.267,700.807,734.267,705.916Z" transform="translate(-639.218 -495.858)" fill="#ff6584" opacity="0.5"/><path d="M569.324,606.674v2.308a4.134,4.134,0,0,0,3.872,4.126l44.256,2.7a4.123,4.123,0,0,0,4.371-4.077l.107-9.485-26.771-.435Z" transform="translate(-459.998 -434.532)" fill="#3f3d56"/><path d="M635.365,581.641l19.966-10.4a.732.732,0,0,0,.372-.474l4.331-17.5a4.2,4.2,0,0,0-2.683-4.977l-1.043-.366a1.8,1.8,0,0,0-2.33,1.221l-4.269,15.41a.733.733,0,0,1-.238.368L633.2,578.437a.734.734,0,0,0-.137.978l1.357,1.989A.73.73,0,0,0,635.365,581.641Z" transform="translate(-518.823 -398.066)" fill="#e6e6e6"/><path d="M574.467,506.454c9.684-5.112,19.82-7.679,30.685-6.154-3.275-5.566-5.708-10.711-5.545-14.563a7.59,7.59,0,0,0-2.967-6.459,9.163,9.163,0,0,0-5.471-1.81h0a7.5,7.5,0,0,0-5.568-.222,5.863,5.863,0,0,0-3.4,3.372,5.336,5.336,0,0,1-2.331,2.389,6.551,6.551,0,0,0-2.524,2.644,4.354,4.354,0,0,0,.185,4.61C573.785,494.21,573.774,500.145,574.467,506.454Z" transform="translate(-444.771 -350.109)" fill="#2f2e41"/><path d="M6.783,0A6.8,6.8,0,1,1,0,6.8,6.792,6.792,0,0,1,6.783,0Z" transform="translate(136.64 129.949)" fill="#ffb8b8"/><path d="M612.028,529.571l7.914.81c-.425-4.639-.592-8.92,0-12.145h-7.914C613.53,523.37,613.4,527.03,612.028,529.571Z" transform="translate(-471.835 -378.085)" fill="#ffb8b8"/><path d="M569.413,537.977q.01,1.066.045,2.11c.165,4.98.79,9.463,2.493,12.764a11.481,11.481,0,0,0,1.233,1.932.055.055,0,0,0,.013.016,1.236,1.236,0,0,0,.107.13,9.17,9.17,0,0,0,1.156,1.2l3.241,3.409.149.156.945.633,4.869,3.253,11.694-6.3.013-1.094.013-1.12c-2.6-3.694-4.222-8.5-5.251-13.968-.282-1.5-.521-3.045-.725-4.636-.139-1.1-.262-2.224-.369-3.363a1.8,1.8,0,0,0-.34-.971v0h0c-.5-.636-1.489-.623-2.687-.688-1.68-.091-3.335-.964-4.821-.14a.877.877,0,0,0-.107.058l-4.361,4.856-2-2.165-.094-.1-4.128,1.773a1.912,1.912,0,0,0-1.081,2.263Z" transform="translate(-433.459 -386.666)" fill="#e6e6e6"/><path d="M569.384,612.474a6.585,6.585,0,0,0,.46,2.42l1.2,3.031,10.638.649c.113.006.227.01.337.01a4.13,4.13,0,0,0,4.034-4.087l.074-6.593.013-1.094-3.872,1.646-3.775-2.032a5.631,5.631,0,0,0-.631-.227,6.044,6.044,0,0,0-.855-.2h0c-.139-.023-.278-.042-.418-.055a6.536,6.536,0,0,0-6.352,3.308,1.551,1.551,0,0,0-.094.175,6.343,6.343,0,0,0-.576,1.532A6.66,6.66,0,0,0,569.384,612.474Z" transform="translate(-424.226 -437.294)" fill="#2f2e41"/><path d="M491.292,479.874l-1.415,6.51-8.6,7.416,7.59-7.773Z" transform="translate(-343.105 -324.096)" opacity="0.2"/><path d="M467.01,489.352l-2.584,10.526-7.591,2.753,7.106-3.563Z" transform="translate(-310.91 -330.498)" opacity="0.2"/><path d="M603.3,492.161c5-2.306,10.651-2.964,15.665-.486l-.646-5.83-10.982-1.781Z" transform="translate(-468.031 -355.007)" fill="#2f2e41"/><path d="M531.768,562.507l36.761-6.332-.451-2.227-36.31,8.559Z" transform="translate(-436.687 -374.124)" fill="#3f3d56"/><path d="M661.749,635.984h0a2.629,2.629,0,0,0,4.134-.709l2.436-4.689-.969-2.105-5.221,3.351a2.644,2.644,0,0,0-.379,4.152Z" transform="translate(-536.039 -452.542)" fill="#ffb8b8"/><path d="M584.483,566.675l19.966-10.4a.732.732,0,0,0,.372-.474l4.331-17.5a4.2,4.2,0,0,0-2.682-4.977l-1.043-.366a1.8,1.8,0,0,0-2.33,1.221l-4.269,15.41a.733.733,0,0,1-.238.368l-16.268,13.515a.734.734,0,0,0-.137.978l1.357,1.989A.73.73,0,0,0,584.483,566.675Z" transform="translate(-451.468 -387.959)" fill="#e6e6e6"/><path d="M746.588,661.489a.682.682,0,0,1-.8-.534l-.368-1.848a.68.68,0,0,1,.532-.8l5.336-1.07a.68.68,0,0,1,.8.534l.368,1.849a.68.68,0,0,1-.532.8Z" transform="translate(-647.545 -471.954)" fill="#e6e6e6"/><path d="M2.275.091C3.531.091,4.55,1.312,4.55,2.93S3.531,5.86,2.275,5.86,0,4.548,0,2.93,1.019.091,2.275.091Z" transform="translate(228.64 209.788)" fill="#3f3d56"/><path d="M2.275.091C3.531.091,4.55,1.312,4.55,2.93S3.531,5.86,2.275,5.86,0,4.548,0,2.93,1.019.091,2.275.091Z" transform="translate(25.238 186.717)" fill="#3f3d56"/><path d="M2.275.091C3.531.091,4.55,1.312,4.55,2.93S3.531,5.86,2.275,5.86,0,4.548,0,2.93,1.019.091,2.275.091Z" transform="translate(272.364 165.828)" fill="#3f3d56"/></svg>